<?xml version="1.0" standalone="no"?>
<!DOCTYPE svg PUBLIC "-//W3C//DTD SVG 20010904//EN"
 "http://www.w3.org/TR/2001/REC-SVG-20010904/DTD/svg10.dtd">
<svg version="1.0" xmlns="http://www.w3.org/2000/svg"
 width="1024.000000pt" height="1024.000000pt" viewBox="0 0 1024.000000 1024.000000"
 preserveAspectRatio="xMidYMid meet">
<metadata>
Created by potrace 1.14, written by Peter Selinger 2001-2017
</metadata>
<g transform="translate(0.000000,1024.000000) scale(0.100000,-0.100000)"
fill="#000000" stroke="none">
<path d="M7111 7633 c0 -62 -5 -113 -10 -113 -5 0 -13 -28 -17 -62 -8 -63 -8
-63 -15 -23 l-6 40 -2 -36 -1 -35 -54 3 c-54 2 -54 2 -71 -35 -10 -20 -36 -62
-58 -92 -23 -30 -43 -57 -45 -60 -2 -2 -6 1 -10 8 -6 8 -12 5 -22 -9 -8 -12
-23 -31 -33 -43 -17 -19 -18 -19 -13 -2 5 16 4 17 -8 7 -8 -7 -20 -29 -27 -49
-10 -32 -13 -34 -20 -17 -7 19 -8 19 -8 -1 -1 -12 -12 -29 -26 -38 -32 -21
-38 -20 -30 4 10 32 -5 23 -16 -10 -21 -59 -27 -42 -58 185 -8 57 -9 58 -9 15
-2 -63 14 -179 31 -228 12 -36 12 -40 -1 -34 -12 4 -14 1 -9 -12 6 -14 3 -16
-14 -11 -12 4 -30 0 -45 -10 -22 -14 -23 -17 -9 -31 8 -9 12 -21 8 -27 -5 -8
-9 -6 -11 6 -5 27 -32 20 -105 -28 -73 -48 -105 -75 -88 -75 6 0 11 -4 11 -10
0 -6 -33 -10 -80 -10 -59 0 -80 -3 -79 -12 1 -7 1 -26 0 -42 -1 -27 -3 -28
-44 -25 -42 4 -43 4 -39 -26 3 -24 1 -27 -8 -15 -9 12 -11 10 -7 -12 5 -33
-10 -38 -16 -5 l-4 22 -8 -22 c-13 -41 -24 -24 -19 30 5 49 29 177 41 222 3
11 3 17 -1 14 -15 -14 -55 -204 -76 -359 -10 -77 -48 -181 -71 -195 -22 -14
-43 166 -37 318 3 87 2 115 -3 82 -5 -27 -10 -105 -11 -172 l-3 -123 -27 0
c-14 0 -41 -12 -58 -27 -18 -15 -44 -26 -60 -26 -16 0 -28 -5 -27 -11 1 -7
-23 -13 -58 -16 -38 -3 -54 -8 -42 -12 26 -11 21 -23 -18 -37 -19 -7 -33 -17
-30 -22 4 -5 1 -9 -4 -9 -6 0 -11 5 -11 10 0 6 -9 10 -20 10 -11 0 -20 -4 -20
-10 0 -5 -8 -10 -18 -10 -13 0 -22 -13 -31 -50 -7 -27 -16 -50 -21 -50 -14 0
-9 55 16 148 29 111 29 120 5 67 -43 -97 -60 -207 -70 -455 -7 -190 -10 -210
-33 -260 l-25 -55 -17 55 c-42 138 -51 212 -51 402 0 102 -2 185 -5 183 -3 -2
-7 -36 -8 -77 -2 -72 -8 -125 -19 -181 -4 -22 -9 -28 -24 -24 -10 3 -23 -1
-30 -9 -6 -8 -20 -14 -30 -14 -10 0 -21 -4 -24 -10 -3 -5 -17 -10 -30 -10 -23
0 -40 22 -36 50 1 11 -2 10 -10 -3 -6 -10 -8 -21 -5 -25 9 -8 -35 -52 -52 -52
-9 0 -13 -7 -9 -20 3 -11 1 -18 -4 -14 -5 3 -9 -10 -9 -28 0 -23 -3 -29 -9
-19 -11 17 26 131 42 131 5 0 8 3 4 6 -11 11 54 96 147 193 56 59 75 82 49 62
-55 -42 -154 -151 -197 -215 -18 -28 -44 -78 -57 -111 -22 -55 -24 -74 -24
-225 1 -148 4 -176 28 -265 15 -55 32 -119 38 -143 10 -37 9 -48 -7 -77 -10
-19 -21 -35 -24 -35 -17 0 -144 234 -196 360 -12 30 -26 56 -32 58 -14 4 -65
-89 -106 -194 -55 -143 -70 -235 -63 -396 l7 -138 -51 -26 c-29 -14 -62 -36
-75 -49 l-24 -24 0 -311 0 -312 116 192 c356 591 733 1120 1129 1584 168 198
595 646 835 876 194 186 348 357 440 488 24 34 46 60 48 57 7 -7 -122 -247
-184 -341 -116 -177 -318 -422 -539 -654 -485 -510 -977 -1133 -1281 -1625
-17 -27 -90 -143 -161 -256 -72 -113 -148 -237 -171 -275 -22 -38 -52 -81 -67
-96 -34 -34 -97 -46 -130 -24 -13 9 -27 16 -29 16 -6 0 2 14 -307 -535 -186
-332 -253 -459 -253 -483 0 -49 49 -95 103 -95 52 0 70 16 117 106 58 112 232
415 281 488 44 67 97 114 207 184 75 48 141 77 301 132 162 57 201 76 300 151
84 63 231 200 223 207 -3 3 -45 -4 -94 -14 -136 -30 -275 -42 -427 -39 l-138
3 103 57 c128 70 256 115 466 163 90 20 187 45 215 54 141 49 291 146 390 251
59 62 177 226 177 246 0 5 -77 8 -175 6 -175 -4 -359 15 -515 51 l-55 13 144
12 c222 19 380 41 456 63 169 49 352 185 486 361 33 42 59 78 59 80 0 2 -64 4
-143 5 -107 1 -186 10 -322 33 -99 17 -197 34 -217 37 -54 8 -36 23 27 23 79
0 382 37 499 61 56 11 144 35 196 52 l95 32 77 115 c168 250 285 519 362 831
59 237 77 388 83 689 3 146 3 274 0 285 -2 11 -5 -31 -6 -92z m-291 -417 c0
-2 -8 -10 -17 -17 -16 -13 -17 -12 -4 4 13 16 21 21 21 13z m-46 -66 c-14 -15
-23 -17 -34 -9 -13 9 -12 10 3 5 11 -3 22 2 29 14 7 10 14 17 17 14 3 -2 -4
-13 -15 -24z m-76 -80 c-7 -10 -14 -17 -17 -15 -4 4 18 35 25 35 2 0 -1 -9 -8
-20z m-28 -34 c0 -16 -81 -85 -98 -83 -11 0 -18 5 -15 10 2 4 10 6 16 4 6 -2
29 14 51 35 39 37 46 42 46 34z m-130 -130 c0 -3 -4 -8 -10 -11 -5 -3 -10 -1
-10 4 0 6 5 11 10 11 6 0 10 -2 10 -4z"/>
<path d="M6701 7454 c0 -11 3 -14 6 -6 3 7 2 16 -1 19 -3 4 -6 -2 -5 -13z"/>
<path d="M6687 7332 c-5 -45 -17 -113 -27 -150 -22 -77 -20 -91 4 -31 19 48
39 180 34 230 -2 21 -6 2 -11 -49z"/>
<path d="M6541 7374 c0 -11 3 -14 6 -6 3 7 2 16 -1 19 -3 4 -6 -2 -5 -13z"/>
<path d="M4715 7060 c-3 -6 1 -7 9 -4 18 7 21 14 7 14 -6 0 -13 -4 -16 -10z"/>
<path d="M8632 5990 c-4 -1841 -13 -3032 -23 -3120 -38 -322 -193 -627 -440
-865 -205 -197 -449 -326 -734 -388 l-100 -22 -2175 0 c-2417 0 -2236 -5
-2453 66 -314 102 -585 300 -774 564 -35 49 -69 90 -75 90 -6 0 -13 6 -16 14
-3 8 0 11 7 7 19 -12 12 8 -14 39 l-25 30 11 -35 c6 -19 15 -43 20 -52 7 -14
5 -18 -6 -18 -8 0 -15 -4 -15 -10 0 -17 28 -11 40 8 10 15 10 15 8 -3 -2 -11
2 -19 9 -18 8 2 10 -4 6 -14 -5 -12 -3 -14 7 -8 9 6 11 4 6 -4 -6 -9 -13 -8
-27 5 -19 17 -20 17 -13 -2 6 -15 5 -17 -7 -8 -8 6 -31 17 -51 23 -23 8 -38
19 -38 28 0 12 -5 10 -23 -8 -12 -13 -18 -27 -13 -30 11 -8 11 -96 0 -123 -4
-10 -2 -27 5 -37 10 -16 8 -19 -11 -21 -13 0 -29 -1 -36 -1 -22 1 -7 -22 16
-25 29 -4 28 -22 0 -22 -21 0 -21 -1 -3 -13 17 -13 17 -14 -3 -19 -34 -9 -56
-54 -53 -109 2 -49 2 -49 -29 -49 -23 0 -33 -6 -40 -25 -8 -22 -13 -24 -29
-16 -11 6 -21 16 -23 22 -2 7 -13 9 -26 5 -26 -9 -20 -26 9 -26 12 0 19 -7 19
-20 0 -11 5 -20 10 -20 6 0 10 -20 10 -44 l0 -45 -34 6 c-18 3 -42 1 -52 -5
-30 -16 -54 8 -54 52 0 20 -4 36 -10 36 -5 0 -10 -22 -10 -50 0 -40 4 -51 21
-61 15 -7 18 -14 11 -21 -7 -7 -18 -2 -35 16 -27 29 -45 33 -53 11 -4 -8 -15
-15 -25 -15 -10 0 -19 -7 -19 -15 0 -8 7 -15 15 -15 9 0 18 7 21 15 4 8 15 15
25 15 27 0 24 -30 -3 -31 -21 -1 -21 -2 -3 -6 11 -3 23 -10 27 -17 6 -8 8 -7
8 2 0 6 7 12 16 12 10 0 14 -7 12 -18 -3 -9 -11 -15 -19 -13 -8 3 -31 4 -51 3
-29 -1 -36 2 -32 13 5 13 -8 15 -77 15 -46 0 -102 6 -123 14 -37 13 -38 14
-18 25 31 17 27 28 -8 23 -16 -2 -30 0 -30 4 0 5 -36 10 -80 12 -52 2 -80 0
-80 -7 0 -6 18 -11 40 -11 56 0 50 -17 -7 -22 -33 -3 -53 0 -65 10 -24 20 -23
32 2 32 24 0 25 9 5 36 -15 19 -15 19 -30 0 -13 -18 -14 -17 -21 8 -3 15 -4
29 -1 32 3 4 32 7 64 9 32 1 66 3 76 4 21 1 23 31 2 31 -18 0 -20 26 -2 33 6
3 3 6 -8 6 -20 0 -55 -20 -55 -33 0 -3 9 -6 20 -6 11 0 20 -7 20 -15 0 -18
-14 -19 -32 -2 -7 7 -22 17 -33 21 -19 8 -19 8 3 17 25 10 29 43 8 65 -18 18
-34 18 -52 0 -19 -20 -18 -44 4 -49 16 -4 16 -5 0 -6 -10 0 -18 -5 -18 -11 0
-5 -18 -10 -40 -10 -23 0 -40 5 -40 11 0 8 -20 10 -67 6 -38 -4 -93 -3 -123 2
-48 7 -50 9 -17 10 20 0 37 6 37 11 0 6 4 10 10 10 5 0 7 -7 4 -15 -5 -12 3
-15 35 -15 23 0 41 5 41 11 0 6 -7 9 -15 6 -8 -4 -17 -2 -20 3 -4 6 1 10 10
10 12 0 15 6 10 20 -7 22 -1 23 30 10 17 -7 17 -9 3 -9 -10 -1 -18 -7 -18 -15
0 -16 30 -26 78 -26 31 0 32 2 32 40 0 40 -7 46 -50 42 -34 -4 -60 9 -60 28 0
24 -13 26 -30 5 -7 -9 -21 -13 -31 -10 -13 4 -27 -3 -44 -21 -22 -23 -27 -25
-42 -13 -18 15 -18 15 3 -35 7 -17 -15 -26 -41 -15 -19 7 -19 8 3 8 24 1 32
31 7 31 -17 0 -56 20 -66 34 -4 4 -10 3 -13 -3 -4 -6 -2 -11 3 -11 6 0 11 -9
11 -20 0 -11 5 -20 12 -20 6 0 9 -2 6 -5 -9 -9 -38 7 -38 21 0 8 -9 14 -20 14
-11 0 -20 -7 -20 -15 0 -10 -9 -15 -27 -14 -17 1 -21 3 -11 6 22 6 23 19 3 27
-10 4 -15 20 -15 50 0 43 16 69 29 48 3 -6 19 -14 35 -18 20 -5 27 -3 22 4 -3
6 2 15 11 21 15 9 13 10 -14 11 -23 0 -33 5 -33 15 0 8 -4 15 -10 15 -5 0 -10
-4 -10 -9 0 -5 -13 -11 -29 -14 -16 -3 -40 -9 -55 -13 -22 -5 -26 -3 -26 15 0
12 6 21 15 21 8 0 15 5 15 10 0 6 -11 10 -25 10 -14 0 -25 -4 -25 -10 0 -5 -7
-10 -15 -10 -8 0 -15 5 -15 10 0 6 5 10 12 10 6 0 9 2 6 5 -3 3 -17 1 -31 -4
-22 -9 -25 -7 -30 17 -3 14 -1 36 3 48 6 15 2 31 -13 55 l-22 34 -3 -37 c-5
-54 -19 -47 -24 12 -8 83 -28 83 -36 0 -2 -27 -8 -50 -13 -50 -5 0 -9 -472 -9
-1080 l0 -1080 5120 0 5120 0 0 2050 c0 1941 -1 2050 -17 2060 -17 10 -17 10
0 20 22 14 25 90 2 90 -8 0 -15 5 -15 10 0 6 7 10 15 10 11 0 15 13 15 54 0
52 -1 55 -31 65 -41 14 -49 14 -49 -3 0 -7 -9 -16 -19 -19 -16 -4 -21 -17 -27
-65 l-6 -61 -52 6 c-63 7 -96 22 -48 23 17 0 32 4 32 9 0 5 9 11 20 14 13 3
20 0 20 -9 0 -8 4 -14 9 -14 4 0 6 11 3 25 -2 15 0 25 7 25 6 0 11 6 11 14 0
10 -21 13 -95 14 -52 0 -95 -4 -95 -9 0 -5 18 -9 40 -9 22 0 40 -4 40 -10 0
-5 9 -10 21 -10 11 0 17 -4 14 -10 -3 -5 -30 -10 -59 -10 -67 0 -109 28 -100
66 5 18 -1 33 -24 58 -17 19 -33 48 -37 65 -5 22 -12 31 -26 31 -10 0 -19 -4
-19 -10 0 -5 -7 -10 -16 -10 -12 0 -14 5 -9 18 13 28 18 89 7 73 -6 -7 -15
-10 -22 -6 -9 6 -9 9 0 15 7 4 0 10 -19 13 -37 8 -41 27 -7 27 41 0 39 18 -4
30 -22 6 -40 15 -40 20 0 6 -7 10 -15 10 -20 0 -19 10 3 26 16 12 16 13 -2 20
-10 4 -21 2 -25 -5 -4 -6 -15 -9 -24 -5 -25 9 -21 24 6 21 19 -2 22 3 25 42 4
47 -14 77 -52 84 -18 4 -17 4 5 6 15 0 32 8 40 17 11 14 9 15 -26 8 -38 -7
-39 -6 -22 11 13 12 16 26 12 46 -4 18 -2 29 4 29 6 0 11 7 11 15 0 11 -12 15
-50 15 -43 0 -50 3 -50 20 0 22 -35 29 -43 8 -2 -7 -8 -9 -13 -5 -13 13 17 27
59 27 30 0 37 4 37 20 0 13 -9 22 -25 26 -28 7 -33 21 -9 26 10 2 18 15 20 33
2 21 0 25 -6 15 -7 -12 -12 -11 -29 4 -25 23 -27 36 -4 36 22 0 14 6 -19 14
-24 5 -28 3 -28 -15 0 -15 -4 -19 -16 -15 -9 3 -18 6 -20 6 -3 0 -2 5 1 10 4
6 3 47 -1 91 -6 68 -10 82 -25 86 -11 3 -19 14 -19 27 0 14 -10 26 -30 34 -16
8 -30 18 -30 23 0 5 14 9 30 9 17 0 30 5 30 10 0 6 -7 10 -15 10 -8 0 -15 5
-15 10 0 6 6 10 13 10 8 0 7 4 -3 11 -11 7 -4 8 24 3 41 -7 42 -2 8 39 -16 18
-92 25 -92 7 0 -5 18 -10 40 -10 22 0 40 -4 40 -10 0 -18 -70 -11 -92 10 -19
17 -19 20 -5 26 23 8 22 44 0 45 -15 0 -15 2 2 9 18 7 17 8 -10 15 -26 7 -27
9 -10 16 17 7 18 8 3 8 -18 1 -23 29 -18 124 1 21 -3 37 -9 37 -6 0 -11 -18
-11 -40 0 -22 -4 -40 -9 -40 -5 0 -7 8 -4 18 2 10 -4 51 -15 92 -20 76 -42
100 -64 68 -7 -9 -8 -4 -4 15 6 27 -8 39 -17 15 -4 -9 -6 -10 -6 -1 -1 6 7 19
17 29 16 17 16 17 -8 10 -14 -4 -36 -8 -50 -10 l-25 -4 23 15 c25 18 29 33 7
33 -8 0 -15 9 -15 20 0 11 7 20 15 20 11 0 15 11 15 40 0 29 -4 40 -15 40 -9
0 -15 -9 -15 -25 0 -20 -5 -25 -25 -25 -28 0 -35 20 -7 21 9 0 1 7 -18 14
l-35 13 33 1 c36 1 41 13 13 33 -10 8 -21 24 -23 38 -2 20 -11 26 -58 35 -61
11 -68 23 -27 43 22 11 25 16 17 32 -15 27 -29 34 -36 16 -9 -23 -39 -19 -57
7 -14 19 -16 20 -16 4 -1 -23 22 -47 45 -47 14 0 15 -3 6 -12 -8 -8 -15 -8
-26 1 -7 6 -18 11 -22 10 -24 -4 -32 4 -39 39 -4 20 -13 44 -20 52 -7 8 -15
24 -18 35 -4 18 -5 18 -6 -2 -1 -19 -7 -23 -31 -23 -20 0 -30 5 -30 15 0 8 -4
15 -10 15 -6 0 -11 111 -13 298 -1 163 -3 -178 -5 -758z m88 400 c0 -5 -4 -10
-10 -10 -5 0 -10 5 -10 10 0 6 5 10 10 10 6 0 10 -4 10 -10z m-2 -81 c-2 -6
-8 -10 -13 -10 -5 0 -11 4 -13 10 -2 6 4 11 13 11 9 0 15 -5 13 -11z m97 -18
c3 -5 1 -12 -5 -16 -5 -3 -10 1 -10 9 0 18 6 21 15 7z m30 -51 c-3 -5 -11 -10
-16 -10 -6 0 -7 5 -4 10 3 6 11 10 16 10 6 0 7 -4 4 -10z m115 -21 c0 -16 -3
-29 -7 -27 -5 2 -21 10 -37 18 -23 12 -30 12 -33 3 -7 -20 -24 -15 -21 5 3 19
28 29 71 31 24 1 27 -3 27 -30z m-125 -9 c3 -5 1 -10 -4 -10 -6 0 -11 5 -11
10 0 6 2 10 4 10 3 0 8 -4 11 -10z m295 -300 c0 -5 -15 -9 -32 -9 l-33 1 30 8
c17 4 31 8 33 9 1 0 2 -3 2 -9z m46 -117 c-10 -10 -19 5 -10 18 6 11 8 11 12
0 2 -7 1 -15 -2 -18z m101 -269 c-3 -3 -12 -4 -19 -1 -8 3 -5 6 6 6 11 1 17
-2 13 -5z m23 -24 c0 -5 -4 -10 -10 -10 -5 0 -10 5 -10 10 0 6 5 10 10 10 6 0
10 -4 10 -10z m37 -146 c-3 -3 -12 -4 -19 -1 -8 3 -5 6 6 6 11 1 17 -2 13 -5z
m183 -294 c0 -5 -7 -10 -15 -10 -8 0 -15 5 -15 10 0 6 7 10 15 10 8 0 15 -4
15 -10z m0 -90 c0 -5 -5 -10 -11 -10 -5 0 -7 5 -4 10 3 6 8 10 11 10 2 0 4 -4
4 -10z m40 -40 c0 -16 -4 -30 -10 -30 -5 0 -10 14 -10 30 0 17 5 30 10 30 6 0
10 -13 10 -30z m3 -117 c-7 -2 -21 -2 -30 0 -10 3 -4 5 12 5 17 0 24 -2 18 -5z
m37 -13 c0 -5 -5 -10 -11 -10 -5 0 -7 5 -4 10 3 6 8 10 11 10 2 0 4 -4 4 -10z
m80 -320 c0 -5 -2 -10 -4 -10 -3 0 -8 5 -11 10 -3 6 -1 10 4 10 6 0 11 -4 11
-10z m137 -86 c30 -8 40 -74 11 -74 -7 0 -6 5 1 14 9 10 7 17 -5 27 -14 11
-18 11 -29 -4 -7 -9 -16 -17 -21 -17 -4 0 -3 5 4 12 7 7 8 17 1 30 -11 20 -2
23 38 12z m371 -71 c-17 -3 -28 -11 -28 -20 0 -9 -3 -14 -6 -10 -15 14 7 37
33 36 l28 -2 -27 -4z m-108 -29 c0 -9 -7 -14 -17 -12 -25 5 -28 28 -4 28 12 0
21 -6 21 -16z m-160 -64 c0 -5 -2 -10 -4 -10 -3 0 -8 5 -11 10 -3 6 -1 10 4
10 6 0 11 -4 11 -10z m-30 -30 c0 -5 -4 -10 -10 -10 -5 0 -10 5 -10 10 0 6 5
10 10 10 6 0 10 -4 10 -10z m50 0 c0 -5 -4 -10 -10 -10 -5 0 -10 5 -10 10 0 6
5 10 10 10 6 0 10 -4 10 -10z m170 -25 c0 -8 -7 -15 -15 -15 -8 0 -15 4 -15 9
0 6 -19 12 -42 14 -37 3 -35 4 15 5 45 2 57 -1 57 -13z m-190 -5 c0 -5 -5 -10
-11 -10 -5 0 -7 5 -4 10 3 6 8 10 11 10 2 0 4 -4 4 -10z m270 -14 c0 -2 -7 -6
-15 -10 -8 -3 -15 -1 -15 4 0 6 7 10 15 10 8 0 15 -2 15 -4z m-175 -15 c3 -5
1 -12 -5 -16 -5 -3 -10 1 -10 9 0 18 6 21 15 7z m-108 -17 c-3 -3 -12 -4 -19
-1 -8 3 -5 6 6 6 11 1 17 -2 13 -5z m158 -13 c3 -5 1 -12 -5 -16 -5 -3 -10 1
-10 9 0 18 6 21 15 7z m-152 -18 c-7 -2 -19 -2 -25 0 -7 3 -2 5 12 5 14 0 19
-2 13 -5z m277 -9 c0 -2 -7 -4 -15 -4 -8 0 -15 4 -15 10 0 5 7 7 15 4 8 -4 15
-8 15 -10z m-110 -20 c0 -8 -4 -12 -10 -9 -5 3 -10 10 -10 16 0 5 5 9 10 9 6
0 10 -7 10 -16z m70 -8 c0 -3 -4 -8 -10 -11 -5 -3 -10 -1 -10 4 0 6 5 11 10
11 6 0 10 -2 10 -4z m-40 -26 c0 -5 -5 -10 -11 -10 -5 0 -7 5 -4 10 3 6 8 10
11 10 2 0 4 -4 4 -10z m-8320 -1786 c0 -2 -7 -4 -15 -4 -8 0 -15 4 -15 10 0 5
7 7 15 4 8 -4 15 -8 15 -10z m-1609 -224 c5 0 9 -4 9 -10 0 -5 -7 -10 -15 -10
-8 0 -15 -8 -15 -17 0 -14 -3 -14 -12 -5 -10 10 -10 15 2 22 13 9 13 11 0 21
-13 9 -12 10 3 5 10 -3 23 -6 28 -6z m1534 -40 c3 -5 -1 -10 -9 -10 -8 0 -18
5 -21 10 -3 6 1 10 9 10 8 0 18 -4 21 -10z m-1145 -70 c-19 -13 -30 -13 -30 0
0 6 10 10 23 10 18 0 19 -2 7 -10z m63 3 c-7 -2 -19 -2 -25 0 -7 3 -2 5 12 5
14 0 19 -2 13 -5z m1053 -69 c-3 -8 -11 -14 -18 -13 -10 0 -10 2 0 6 6 2 13
23 14 46 1 39 2 39 5 9 3 -19 2 -40 -1 -48z m-969 60 c-3 -3 -12 -4 -19 -1 -8
3 -5 6 6 6 11 1 17 -2 13 -5z m-117 -14 c0 -5 -7 -10 -16 -10 -8 0 -12 5 -9
10 3 6 10 10 16 10 5 0 9 -4 9 -10z m-60 -15 c0 -8 -4 -15 -10 -15 -5 0 -10 7
-10 15 0 8 5 15 10 15 6 0 10 -7 10 -15z m-273 -1 c-3 -3 -12 -4 -19 -1 -8 3
-5 6 6 6 11 1 17 -2 13 -5z m103 -9 c0 -8 -4 -15 -10 -15 -5 0 -10 7 -10 15 0
8 5 15 10 15 6 0 10 -7 10 -15z m490 0 c0 -8 -9 -15 -20 -15 -11 0 -20 7 -20
15 0 8 9 15 20 15 11 0 20 -7 20 -15z m-140 -5 c0 -5 -6 -10 -14 -10 -8 0 -18
5 -21 10 -3 6 3 10 14 10 12 0 21 -4 21 -10z m-451 -23 c12 -15 5 -27 -16 -27
-7 0 -13 9 -13 20 0 23 13 26 29 7z m565 -46 c3 -5 -3 -11 -14 -14 -13 -3 -20
0 -20 9 0 15 26 19 34 5z m-414 -35 c0 -3 -4 -8 -10 -11 -5 -3 -10 -1 -10 4 0
6 5 11 10 11 6 0 10 -2 10 -4z m276 -6 c13 0 24 -3 24 -8 0 -13 -104 -6 -108
8 -4 10 3 11 28 7 18 -4 43 -7 56 -7z m84 -6 c0 -9 -5 -14 -12 -12 -18 6 -21
28 -4 28 9 0 16 -7 16 -16z m827 -6 c-3 -8 -6 -5 -6 6 -1 11 2 17 5 13 3 -3 4
-12 1 -19z m-942 -28 c-3 -5 -10 -10 -16 -10 -5 0 -9 5 -9 10 0 6 7 10 16 10
8 0 12 -4 9 -10z m70 -20 c3 -6 -4 -10 -17 -10 -18 0 -20 2 -8 10 19 12 18 12
25 0z m65 -19 c0 -5 -7 -11 -15 -15 -15 -5 -20 5 -8 17 9 10 23 9 23 -2z m680
-31 c0 -5 -4 -10 -10 -10 -5 0 -10 5 -10 10 0 6 5 10 10 10 6 0 10 -4 10 -10z
m120 -12 c0 -5 -18 -8 -40 -8 -22 0 -40 4 -40 10 0 5 18 9 40 7 22 -1 40 -5
40 -9z m-560 -14 c0 -8 -5 -12 -10 -9 -6 4 -8 11 -5 16 9 14 15 11 15 -7z
m-40 2 c0 -11 -19 -15 -25 -6 -3 5 1 10 9 10 9 0 16 -2 16 -4z m-40 -36 c0 -5
-4 -10 -9 -10 -6 0 -13 5 -16 10 -3 6 1 10 9 10 9 0 16 -4 16 -10z m-53 -56
c-3 -3 -12 -4 -19 -1 -8 3 -5 6 6 6 11 1 17 -2 13 -5z m373 -19 c0 -17 -2 -18
-24 -9 -23 9 -20 24 4 24 11 0 20 -7 20 -15z m60 8 c0 -5 -5 -15 -10 -23 -9
-13 -11 -13 -20 0 -15 22 -12 30 10 30 11 0 20 -3 20 -7z m-220 -43 c0 -5 -2
-10 -4 -10 -3 0 -8 5 -11 10 -3 6 -1 10 4 10 6 0 11 -4 11 -10z m-10 -40 c0
-5 -2 -10 -4 -10 -3 0 -8 5 -11 10 -3 6 -1 10 4 10 6 0 11 -4 11 -10z m-43
-156 c-3 -3 -12 -4 -19 -1 -8 3 -5 6 6 6 11 1 17 -2 13 -5z"/>
<path d="M4983 7020 c-24 -5 -51 -14 -60 -20 -15 -10 -14 -10 7 -5 136 32 251
31 360 -4 83 -26 90 -20 8 9 -71 25 -241 36 -315 20z"/>
<path d="M4800 6958 c-41 -17 -86 -38 -100 -48 -14 -10 -56 -34 -95 -55 -38
-21 -77 -44 -86 -51 -8 -8 -19 -14 -22 -14 -4 0 -28 -15 -54 -34 -27 -18 -62
-38 -80 -44 -17 -6 -41 -20 -52 -31 -12 -12 -30 -21 -40 -21 -10 0 -21 -7 -25
-15 -3 -8 -11 -14 -18 -13 -7 2 -12 -3 -10 -9 1 -7 -2 -13 -7 -13 -14 0 -32
26 -23 34 4 4 2 7 -3 6 -21 -5 -36 0 -30 10 4 6 -1 7 -12 3 -16 -6 -16 -4 2
17 l20 24 -26 -19 -26 -19 44 -28 c39 -25 50 -48 22 -48 -6 0 -8 4 -4 9 3 5 0
13 -6 17 -7 4 -9 3 -5 -4 3 -6 2 -13 -3 -17 -6 -3 -17 8 -26 25 -19 36 -35 39
-35 5 0 -28 -3 -29 -30 -15 -13 7 -21 7 -25 0 -3 -5 1 -10 9 -10 9 0 16 -4 16
-9 0 -15 -18 -23 -25 -11 -10 16 -28 12 -21 -5 3 -8 1 -15 -4 -15 -6 0 -10 5
-10 10 0 18 -18 11 -25 -9 -3 -11 -13 -22 -21 -25 -8 -3 -12 -2 -9 4 3 6 -2
10 -12 10 -10 0 -29 3 -43 5 -22 5 -22 4 -5 -4 19 -9 19 -10 -2 -10 -13 -1
-23 4 -23 9 0 6 -5 10 -11 10 -8 0 -8 -5 1 -15 7 -8 23 -15 36 -15 13 0 24 -4
24 -10 0 -5 6 -10 14 -10 8 0 17 -4 20 -9 3 -4 -6 -6 -19 -3 -14 2 -25 8 -25
13 0 5 -16 9 -35 9 -23 0 -34 4 -32 13 1 7 -7 11 -23 9 -21 -2 -22 -1 -10 8
13 10 12 11 -3 6 -19 -6 -35 1 -172 72 -44 23 -69 33 -55 22 42 -34 280 -148
378 -180 168 -56 254 -71 435 -77 197 -7 250 0 479 63 90 24 187 47 216 51 29
3 55 9 57 13 3 5 -3 6 -12 4 -16 -3 -122 -12 -161 -13 -8 -1 -10 -6 -6 -13 4
-7 4 -10 0 -7 -4 4 -28 1 -54 -7 l-47 -14 25 20 c14 11 34 20 45 20 11 0 27 5
35 10 11 7 6 10 -22 10 -20 0 -44 3 -54 7 -13 5 -16 3 -11 -10 6 -17 -5 -31
-17 -20 -4 4 -19 9 -34 11 -15 2 -28 7 -30 13 -5 12 -69 12 -76 0 -3 -5 -14
-7 -24 -5 -9 3 -35 -2 -57 -10 -35 -14 -36 -15 -10 -12 17 2 37 7 46 11 10 3
20 1 24 -4 3 -6 12 -8 18 -4 7 4 6 0 -2 -10 -7 -9 -23 -17 -35 -16 -19 1 -19
2 4 10 18 6 13 7 -21 3 -48 -5 -82 2 -74 16 3 5 -5 6 -16 3 -21 -6 -21 -6 2
-20 18 -10 19 -13 4 -8 -44 16 -55 17 -55 7 0 -7 -11 -7 -36 0 -20 5 -55 8
-77 7 -23 -1 -55 -1 -72 0 l-30 3 30 8 c25 6 21 8 -25 9 -30 0 -62 -4 -70 -9
-12 -8 -12 -10 -1 -10 8 0 12 -2 10 -5 -3 -2 -18 0 -35 4 -28 9 -28 9 -4 11
25 1 25 1 -5 15 -28 12 -26 13 40 9 129 -7 300 -7 350 1 46 7 171 38 290 72
28 8 77 21 110 29 60 14 60 14 11 9 -27 -3 -101 -21 -165 -40 -64 -19 -156
-41 -205 -50 -146 -25 -452 -15 -480 16 -8 9 -8 10 1 5 6 -3 69 31 140 76 235
150 452 276 523 304 39 15 70 29 70 31 0 8 -31 -1 -100 -29z m-640 -408 c0 -5
-18 -10 -40 -10 -22 0 -40 5 -40 10 0 6 18 10 40 10 22 0 40 -4 40 -10z m-165
-70 c3 -6 -1 -7 -9 -4 -18 7 -21 14 -7 14 6 0 13 -4 16 -10z m430 0 c-52 -10
-163 -21 -150 -15 15 7 124 23 160 23 24 0 23 -2 -10 -8z m-378 -16 c-3 -3
-12 -4 -19 -1 -8 3 -5 6 6 6 11 1 17 -2 13 -5z m540 0 c-3 -3 -12 -4 -19 -1
-8 3 -5 6 6 6 11 1 17 -2 13 -5z m-430 -20 c-3 -3 -12 -4 -19 -1 -8 3 -5 6 6
6 11 1 17 -2 13 -5z m510 -20 c-3 -3 -12 -4 -19 -1 -8 3 -5 6 6 6 11 1 17 -2
13 -5z"/>
<path d="M4509 6943 c-13 -16 -12 -17 4 -4 9 7 17 15 17 17 0 8 -8 3 -21 -13z"/>
<path d="M5390 6956 c0 -2 7 -7 16 -10 8 -3 12 -2 9 4 -6 10 -25 14 -25 6z"/>
<path d="M4430 6900 c-9 -6 -10 -10 -3 -10 6 0 15 5 18 10 8 12 4 12 -15 0z"/>
<path d="M4325 6834 c-38 -24 -122 -78 -186 -119 -64 -41 -130 -78 -148 -81
-17 -4 -31 -10 -31 -15 0 -12 27 -11 35 1 4 6 10 8 15 5 8 -5 142 79 188 116
7 6 23 16 35 22 40 21 167 106 167 112 0 7 5 9 -75 -41z"/>
<path d="M5881 6864 c0 -11 3 -14 6 -6 3 7 2 16 -1 19 -3 4 -6 -2 -5 -13z"/>
<path d="M3332 6562 c-1 -165 -6 -301 -12 -311 -5 -10 -34 -30 -63 -45 -70
-34 -150 -119 -187 -198 -48 -102 -51 -177 -48 -1063 l3 -800 27 -78 c52 -155
179 -301 320 -370 66 -33 416 -157 441 -157 6 0 4 6 -4 13 -8 6 -12 11 -9 9 5
-4 54 100 51 111 0 4 11 4 26 1 16 -4 26 -4 22 -1 -5 6 -71 31 -313 118 -245
88 -346 178 -393 349 -17 60 -18 129 -18 900 l0 835 23 56 c21 54 66 110 104
130 17 9 18 -20 18 -823 0 -458 5 -875 10 -927 7 -75 15 -107 40 -155 51 -98
151 -190 275 -254 59 -30 105 -46 112 -38 3 3 0 6 -8 6 -12 0 -11 2 1 11 12 8
12 12 2 16 -10 4 -9 8 4 17 14 11 9 18 -47 55 -88 60 -142 113 -201 200 l-50
74 43 -27 c107 -66 310 -157 473 -212 79 -27 79 -27 72 -15 -3 5 8 23 24 41
17 18 30 36 30 40 0 5 9 15 21 23 19 14 16 16 -55 46 -41 17 -110 44 -153 60
-162 61 -251 104 -345 168 l-98 65 0 1108 c0 877 -3 1109 -12 1113 -10 3 -13
-29 -12 -147 1 -83 0 -137 -2 -121 -3 17 -7 45 -10 64 l-5 33 -25 -23 c-14
-13 -23 -31 -21 -40 3 -11 -2 -19 -14 -22 -22 -6 -20 -29 -29 248 l-6 210 -2
-293z"/>
<path d="M5716 6805 c-11 -8 -15 -15 -9 -15 6 0 16 7 23 15 16 19 11 19 -14 0z"/>
<path d="M3626 6785 c10 -8 23 -15 28 -15 6 0 1 7 -10 15 -10 8 -23 15 -28 15
-6 0 -1 -7 10 -15z"/>
<path d="M3687 6749 c7 -7 15 -10 18 -7 3 3 -2 9 -12 12 -14 6 -15 5 -6 -5z"/>
<path d="M5639 6733 l-24 -28 28 24 c15 14 27 26 27 28 0 8 -8 1 -31 -24z"/>
<path d="M3760 6714 c0 -7 150 -77 155 -73 2 2 -32 21 -76 41 -43 20 -79 34
-79 32z"/>
<path d="M3451 6703 c0 -4 4 -17 9 -28 8 -19 9 -19 9 2 1 12 -3 25 -9 28 -5 3
-10 3 -9 -2z"/>
<path d="M3507 6699 c7 -7 15 -10 18 -7 3 3 -2 9 -12 12 -14 6 -15 5 -6 -5z"/>
<path d="M4275 6690 c-3 -6 1 -7 9 -4 18 7 21 14 7 14 -6 0 -13 -4 -16 -10z"/>
<path d="M5098 6653 c18 -2 45 -2 60 0 15 2 0 4 -33 4 -33 0 -45 -2 -27 -4z"/>
<path d="M5233 6635 c0 -8 4 -12 9 -9 4 3 8 9 8 15 0 5 -4 9 -8 9 -5 0 -9 -7
-9 -15z"/>
<path d="M5512 6584 c-12 -19 -20 -34 -18 -34 7 0 49 61 44 65 -2 2 -13 -12
-26 -31z"/>
<path d="M3968 6593 c7 -3 16 -2 19 1 4 3 -2 6 -13 5 -11 0 -14 -3 -6 -6z"/>
<path d="M4998 6533 c7 -3 16 -2 19 1 4 3 -2 6 -13 5 -11 0 -14 -3 -6 -6z"/>
<path d="M5465 6508 l-16 -33 20 25 c20 24 26 40 16 40 -2 0 -12 -15 -20 -32z"/>
<path d="M4488 6503 c6 -2 18 -2 25 0 6 3 1 5 -13 5 -14 0 -19 -2 -12 -5z"/>
<path d="M8760 6410 c0 -5 5 -10 10 -10 6 0 10 5 10 10 0 6 -4 10 -10 10 -5 0
-10 -4 -10 -10z"/>
<path d="M8838 6393 c7 -3 16 -2 19 1 4 3 -2 6 -13 5 -11 0 -14 -3 -6 -6z"/>
<path d="M8880 6289 c0 -5 19 -9 42 -9 49 0 47 5 -4 13 -21 3 -38 2 -38 -4z"/>
<path d="M7069 6122 c-1 -7 -2 -16 -3 -20 -3 -20 -50 -112 -57 -112 -4 0 2
-21 14 -47 l22 -48 0 -830 c0 -639 -3 -842 -13 -884 -35 -148 -132 -271 -262
-334 -88 -42 -489 -190 -1075 -397 -335 -119 -382 -138 -409 -168 -13 -15 -42
-48 -66 -74 -38 -43 -103 -78 -117 -64 -4 3 8 9 25 12 17 4 48 21 69 39 33 29
36 34 24 49 -11 13 -12 19 -2 29 10 9 11 9 6 -4 -4 -10 0 -16 10 -16 8 0 15 3
15 7 0 3 15 21 33 40 31 31 31 33 7 25 -29 -9 -25 -3 9 15 19 10 22 10 16 -1
-6 -9 -3 -11 9 -6 10 4 22 7 27 7 6 0 8 4 5 9 -3 4 5 6 18 4 12 -3 29 1 37 9
8 7 34 19 59 27 25 7 68 21 95 31 28 10 100 35 160 55 61 21 133 47 160 60 28
12 76 30 108 40 47 14 57 21 56 38 0 22 -1 22 -12 -1 -9 -20 -16 -23 -46 -18
-28 4 -32 3 -16 -4 18 -9 17 -10 -7 -7 -15 2 -29 0 -30 -5 -2 -5 -15 -5 -31 1
-18 7 -26 7 -22 1 3 -6 14 -10 23 -10 28 0 0 -16 -84 -48 -45 -17 -94 -30
-110 -29 -19 1 -28 -2 -26 -10 1 -8 -8 -13 -23 -13 -14 0 -42 -9 -62 -20 -21
-11 -47 -17 -58 -14 -17 4 -17 3 -5 -6 12 -9 9 -10 -15 -6 -23 5 -27 4 -15 -4
11 -9 4 -10 -30 -6 -32 4 -39 3 -25 -3 11 -5 16 -10 10 -11 -71 -10 -74 -9
-80 10 -4 13 -15 20 -31 20 -13 0 -24 5 -24 11 0 6 7 8 16 5 8 -3 12 -2 9 4
-3 6 1 10 10 10 9 0 13 -4 10 -10 -3 -5 0 -10 8 -10 10 0 13 7 10 21 -4 16
-12 20 -30 16 -14 -3 -31 2 -41 12 -15 15 -15 15 -10 -1 4 -9 2 -19 -5 -22 -9
-3 -9 -5 1 -5 6 -1 12 -5 12 -10 0 -5 -12 -8 -27 -7 -35 4 -66 -11 -59 -29 5
-14 -37 -59 -46 -50 -3 4 -20 -11 -37 -32 -44 -53 -39 -32 8 30 50 69 175 180
281 251 155 104 325 184 765 358 177 70 387 169 469 222 32 20 60 35 63 33 11
-12 -73 -130 -124 -174 -96 -82 -239 -169 -373 -226 -36 -16 -73 -32 -82 -38
-10 -5 -23 -9 -28 -9 -10 0 -71 -27 -167 -73 -36 -17 -20 -19 20 -2 29 12 41
13 62 3 14 -6 25 -15 25 -20 0 -13 38 -9 47 5 13 20 51 38 58 27 3 -6 0 -10
-7 -10 -18 0 -52 -40 -35 -41 6 -1 1 -5 -13 -10 -18 -6 -10 -7 30 -4 l55 4
-50 -15 c-27 -9 -60 -18 -72 -21 -13 -3 -23 -10 -23 -15 0 -6 8 -7 18 -3 9 4
37 14 62 22 25 8 54 18 65 23 11 5 38 14 60 21 22 6 45 15 51 20 6 5 40 18 77
29 36 11 69 25 72 30 7 11 -8 14 -19 3 -12 -12 -80 -33 -110 -33 -16 0 -35 -8
-42 -17 -13 -17 -13 -17 -14 0 0 9 5 17 10 17 17 0 11 28 -7 39 -15 9 -14 10
10 11 15 0 35 4 45 9 9 5 62 30 117 56 225 107 353 222 412 371 l28 69 0 740
c0 510 -3 746 -11 758 -9 16 -13 14 -39 -24 -15 -23 -42 -55 -59 -71 l-31 -28
-3 -603 -3 -602 -91 -65 c-111 -78 -251 -148 -463 -233 -390 -156 -499 -202
-630 -267 -179 -88 -280 -155 -379 -251 l-79 -77 -25 31 c-35 42 -125 127
-135 127 -12 0 -124 -70 -137 -85 -8 -9 2 -23 37 -51 83 -67 154 -137 209
-206 58 -71 63 -81 39 -72 -8 4 -13 10 -10 14 3 4 -2 14 -11 21 -12 10 -17 10
-23 0 -12 -19 -114 -3 -106 17 4 12 2 12 -8 4 -8 -7 -16 -11 -18 -9 -2 1 2 -4
10 -10 8 -7 11 -13 6 -13 -5 0 1 -9 13 -20 12 -12 22 -25 22 -31 0 -6 5 -7 10
-4 6 4 10 3 9 -2 -4 -21 2 -24 19 -12 15 13 16 12 4 -3 -17 -21 -11 -32 40
-69 23 -16 38 -29 34 -29 -18 0 -70 46 -108 94 -22 28 -57 60 -77 72 -39 23
-378 141 -384 133 -2 -2 -26 -34 -54 -70 l-50 -65 131 -46 c72 -25 162 -57
200 -69 62 -21 72 -29 101 -74 41 -64 58 -78 128 -111 148 -67 330 -20 412
108 30 46 31 47 185 101 202 72 559 202 730 265 359 133 470 176 527 204 125
61 247 186 307 313 57 120 56 96 56 1025 0 921 0 912 -52 1017 -23 46 -67 94
-69 75z m-921 -2379 c-10 -2 -28 -2 -40 0 -13 2 -5 4 17 4 22 1 32 -1 23 -4z
m122 -4 c0 -6 -8 -18 -17 -27 -16 -16 -16 -16 -10 1 4 10 7 23 7 28 0 5 5 9
10 9 6 0 10 -5 10 -11z m-45 -9 c-3 -5 -10 -10 -16 -10 -5 0 -9 5 -9 10 0 6 7
10 16 10 8 0 12 -4 9 -10z m-125 -14 c0 -3 -4 -8 -10 -11 -5 -3 -10 -1 -10 4
0 6 5 11 10 11 6 0 10 -2 10 -4z m90 -36 c-8 -5 -22 -9 -30 -9 -10 0 -8 3 5 9
27 12 43 12 25 0z m-473 -196 c-3 -3 -12 -4 -19 -1 -8 3 -5 6 6 6 11 1 17 -2
13 -5z m-437 -63 c0 -12 -49 -66 -55 -60 -3 3 6 16 20 29 29 27 32 42 8 34
-15 -5 -15 -4 -3 4 14 11 30 7 30 -7z m50 -11 c0 -5 -5 -10 -11 -10 -5 0 -7 5
-4 10 3 6 8 10 11 10 2 0 4 -4 4 -10z m-150 -80 c0 -5 -5 -10 -11 -10 -5 0 -7
5 -4 10 3 6 8 10 11 10 2 0 4 -4 4 -10z m-122 -30 c-7 -11 -19 -20 -27 -20 -8
0 -4 8 10 20 30 25 32 25 17 0z"/>
<path d="M9280 5695 c0 -8 9 -15 20 -15 24 0 27 15 4 24 -22 9 -24 8 -24 -9z"/>
<path d="M9338 5443 c7 -3 16 -2 19 1 4 3 -2 6 -13 5 -11 0 -14 -3 -6 -6z"/>
<path d="M9440 5249 c0 -5 5 -7 10 -4 6 3 10 8 10 11 0 2 -4 4 -10 4 -5 0 -10
-5 -10 -11z"/>
<path d="M9600 5210 c0 -5 7 -10 16 -10 8 0 12 5 9 10 -3 6 -10 10 -16 10 -5
0 -9 -4 -9 -10z"/>
<path d="M9586 5061 c-4 -7 -5 -15 -2 -18 9 -9 19 4 14 18 -4 11 -6 11 -12 0z"/>
<path d="M9683 4920 c0 -25 2 -35 4 -22 2 12 2 32 0 45 -2 12 -4 2 -4 -23z"/>
<path d="M9768 4873 c7 -3 16 -2 19 1 4 3 -2 6 -13 5 -11 0 -14 -3 -6 -6z"/>
<path d="M9830 4823 c-13 -15 -12 -16 4 -10 10 4 20 7 22 7 2 0 4 5 4 10 0 15
-13 12 -30 -7z"/>
<path d="M9838 4760 c-2 -28 0 -40 9 -40 8 0 13 14 13 40 0 22 -4 40 -9 40 -5
0 -11 -18 -13 -40z"/>
<path d="M9676 4707 c3 -10 9 -15 12 -12 3 3 0 11 -7 18 -10 9 -11 8 -5 -6z"/>
<path d="M9906 4705 c4 -8 8 -15 10 -15 2 0 4 7 4 15 0 8 -4 15 -10 15 -5 0
-7 -7 -4 -15z"/>
<path d="M9820 4680 c-13 -8 -12 -10 3 -10 9 0 17 -4 17 -10 0 -5 -6 -10 -14
-10 -8 0 -18 5 -21 10 -8 13 -45 13 -45 0 0 -10 60 -24 83 -18 13 2 14 7 4 25
-9 16 -16 20 -27 13z"/>
<path d="M9660 4672 c0 -5 7 -13 16 -16 10 -4 14 -1 12 6 -5 15 -28 23 -28 10z"/>
<path d="M10050 4575 c-10 -13 -9 -15 9 -15 12 0 21 6 21 15 0 8 -4 15 -9 15
-5 0 -14 -7 -21 -15z"/>
<path d="M10126 4576 c3 -9 16 -16 28 -15 14 0 16 2 6 6 -8 3 -21 10 -28 16
-9 7 -11 6 -6 -7z"/>
<path d="M9785 4570 c-3 -5 3 -10 15 -10 12 0 18 5 15 10 -3 6 -10 10 -15 10
-5 0 -12 -4 -15 -10z"/>
<path d="M9853 4525 c-18 -20 -16 -33 7 -40 24 -8 60 2 60 16 0 15 -26 39 -42
39 -7 -1 -19 -7 -25 -15z m47 -15 c0 -5 -9 -10 -20 -10 -11 0 -20 5 -20 10 0
6 9 10 20 10 11 0 20 -4 20 -10z"/>
<path d="M10130 4530 c0 -5 7 -10 16 -10 11 0 14 -6 8 -22 l-7 -23 23 20 c18
17 20 21 6 23 -9 2 -16 8 -16 13 0 5 -7 9 -15 9 -8 0 -15 -4 -15 -10z"/>
<path d="M10226 4501 c-4 -7 -5 -15 -2 -18 9 -9 19 4 14 18 -4 11 -6 11 -12 0z"/>
<path d="M10017 4454 c-9 -9 4 -35 14 -28 5 3 9 12 9 20 0 14 -12 19 -23 8z"/>
<path d="M10071 4444 c0 -11 3 -14 6 -6 3 7 2 16 -1 19 -3 4 -6 -2 -5 -13z"/>
<path d="M9848 4443 c6 -2 18 -2 25 0 6 3 1 5 -13 5 -14 0 -19 -2 -12 -5z"/>
<path d="M10100 4440 c0 -5 5 -10 10 -10 6 0 10 5 10 10 0 6 -4 10 -10 10 -5
0 -10 -4 -10 -10z"/>
<path d="M9858 4413 c12 -2 32 -2 45 0 12 2 2 4 -23 4 -25 0 -35 -2 -22 -4z"/>
<path d="M10000 4405 c0 -8 4 -15 10 -15 5 0 7 7 4 15 -4 8 -8 15 -10 15 -2 0
-4 -7 -4 -15z"/>
<path d="M10040 4410 c0 -5 7 -10 16 -10 8 0 12 5 9 10 -3 6 -10 10 -16 10 -5
0 -9 -4 -9 -10z"/>
<path d="M10123 4396 c4 -13 117 -18 117 -6 0 11 -1 11 -73 14 -28 1 -46 -3
-44 -8z"/>
<path d="M10080 4360 c0 -15 5 -20 18 -18 9 2 17 10 17 18 0 8 -8 16 -17 18
-13 2 -18 -3 -18 -18z"/>
<path d="M9905 4340 c3 -5 8 -10 11 -10 2 0 4 5 4 10 0 6 -5 10 -11 10 -5 0
-7 -4 -4 -10z"/>
<path d="M6775 3879 c-16 -10 -25 -19 -19 -19 7 0 22 9 35 20 30 24 23 24 -16
-1z"/>
<path d="M6625 3819 c-17 -12 -21 -18 -10 -14 11 4 28 10 38 12 9 3 17 9 17
14 0 14 -13 11 -45 -12z"/>
<path d="M6560 3800 c0 -6 7 -10 15 -10 8 0 15 2 15 4 0 2 -7 6 -15 10 -8 3
-15 1 -15 -4z"/>
<path d="M6391 3780 c-12 -7 -9 -10 12 -16 16 -3 31 -4 34 0 4 3 -1 6 -9 6 -9
0 -18 4 -20 10 -2 6 -9 6 -17 0z"/>
<path d="M6305 3750 c3 -5 8 -10 11 -10 2 0 4 5 4 10 0 6 -5 10 -11 10 -5 0
-7 -4 -4 -10z"/>
<path d="M6030 3658 c0 -19 2 -20 10 -8 13 19 13 30 0 30 -5 0 -10 -10 -10
-22z"/>
<path d="M6071 3654 c0 -11 3 -14 6 -6 3 7 2 16 -1 19 -3 4 -6 -2 -5 -13z"/>
<path d="M6001 3624 c0 -11 3 -14 6 -6 3 7 2 16 -1 19 -3 4 -6 -2 -5 -13z"/>
<path d="M5405 3490 c-3 -5 1 -10 10 -10 9 0 13 5 10 10 -3 6 -8 10 -10 10 -2
0 -7 -4 -10 -10z"/>
<path d="M5530 3460 c0 -5 5 -10 11 -10 5 0 7 5 4 10 -3 6 -8 10 -11 10 -2 0
-4 -4 -4 -10z"/>
<path d="M5575 3460 c-3 -5 -1 -10 4 -10 6 0 11 5 11 10 0 6 -2 10 -4 10 -3 0
-8 -4 -11 -10z"/>
<path d="M5455 3440 c-18 -8 -17 -9 8 -9 16 -1 26 3 22 9 -3 6 -7 10 -8 9 -1
0 -11 -4 -22 -9z"/>
<path d="M5393 3418 c2 -7 10 -13 17 -13 7 0 15 6 18 13 2 7 -5 12 -18 12 -13
0 -20 -5 -17 -12z"/>
<path d="M4974 3413 c4 -7 3 -13 -2 -13 -5 0 -9 -11 -9 -23 0 -18 8 -27 34
-36 24 -9 38 -10 45 -3 13 13 -22 33 -49 28 -12 -3 -20 1 -20 10 0 10 4 11 13
3 17 -14 12 17 -6 34 -10 9 -11 9 -6 0z"/>
<path d="M5200 3390 c-6 -11 -8 -20 -6 -20 3 0 10 9 16 20 6 11 8 20 6 20 -3
0 -10 -9 -16 -20z"/>
<path d="M5020 3380 c0 -5 5 -10 11 -10 5 0 7 5 4 10 -3 6 -8 10 -11 10 -2 0
-4 -4 -4 -10z"/>
<path d="M4851 3367 c2 -1 11 -8 21 -15 12 -10 18 -10 24 -1 4 8 3 9 -4 5 -7
-4 -12 -2 -12 3 0 6 -7 11 -17 11 -9 0 -14 -1 -12 -3z"/>
<path d="M1653 3160 c0 -25 2 -35 4 -22 2 12 2 32 0 45 -2 12 -4 2 -4 -23z"/>
<path d="M1653 3065 c0 -22 2 -30 4 -17 2 12 2 30 0 40 -3 9 -5 -1 -4 -23z"/>
<path d="M3674 2986 c-30 -20 -58 -49 -68 -70 -11 -23 -24 -105 -36 -233 -11
-109 -23 -220 -27 -247 l-6 -50 39 24 c21 13 64 40 94 60 30 20 97 60 147 89
51 29 100 62 108 74 15 21 85 225 85 247 0 6 -20 8 -54 4 -91 -11 -176 33
-207 107 -6 16 -14 29 -18 29 -3 0 -29 -15 -57 -34z"/>
<path d="M1663 2950 c0 -25 2 -35 4 -22 2 12 2 32 0 45 -2 12 -4 2 -4 -23z"/>
<path d="M1672 2855 c0 -16 2 -22 5 -12 2 9 2 23 0 30 -3 6 -5 -1 -5 -18z"/>
<path d="M1681 2800 c0 -14 6 -45 13 -70 19 -58 19 -32 1 40 -7 31 -14 44 -14
30z"/>
<path d="M1723 2619 c1 -21 5 -35 8 -33 7 4 29 -65 29 -90 0 -9 5 -16 11 -16
6 0 8 -9 4 -22 -4 -16 -3 -19 3 -9 8 11 10 11 14 0 7 -20 -11 -51 -24 -43 -6
4 -8 3 -5 -4 5 -7 14 -7 31 1 23 11 24 13 8 42 -8 16 -30 71 -48 120 -26 71
-32 82 -31 54z"/>
<path d="M88 2383 c7 -3 16 -2 19 1 4 3 -2 6 -13 5 -11 0 -14 -3 -6 -6z"/>
<path d="M1770 2341 c0 -6 5 -13 10 -16 6 -3 10 1 10 9 0 9 -4 16 -10 16 -5 0
-10 -4 -10 -9z"/>
<path d="M1806 2335 c-3 -8 -1 -15 4 -15 6 0 10 7 10 15 0 8 -2 15 -4 15 -2 0
-6 -7 -10 -15z"/>
<path d="M285 2330 c-3 -5 3 -10 14 -10 12 0 21 5 21 10 0 6 -6 10 -14 10 -8
0 -18 -4 -21 -10z"/>
<path d="M66 2275 c4 -8 8 -15 10 -15 2 0 4 7 4 15 0 8 -4 15 -10 15 -5 0 -7
-7 -4 -15z"/>
<path d="M1671 2274 c0 -11 3 -14 6 -6 3 7 2 16 -1 19 -3 4 -6 -2 -5 -13z"/>
<path d="M240 2270 c0 -5 7 -10 15 -10 8 0 15 5 15 10 0 6 -7 10 -15 10 -8 0
-15 -4 -15 -10z"/>
<path d="M298 2243 c7 -3 16 -2 19 1 4 3 -2 6 -13 5 -11 0 -14 -3 -6 -6z"/>
<path d="M1638 2243 c7 -3 16 -2 19 1 4 3 -2 6 -13 5 -11 0 -14 -3 -6 -6z"/>
<path d="M670 2200 c0 -5 5 -10 10 -10 6 0 10 5 10 10 0 6 -4 10 -10 10 -5 0
-10 -4 -10 -10z"/>
<path d="M190 2120 c0 -5 7 -10 15 -10 8 0 15 5 15 10 0 6 -7 10 -15 10 -8 0
-15 -4 -15 -10z"/>
<path d="M560 2096 c0 -9 5 -16 10 -16 6 0 10 4 10 9 0 6 -4 13 -10 16 -5 3
-10 -1 -10 -9z"/>
<path d="M616 2089 c-17 -21 -17 -22 -1 -15 11 4 22 1 26 -6 7 -10 11 -10 21
0 9 9 9 12 -4 12 -9 0 -18 7 -20 15 -2 13 -7 12 -22 -6z"/>
<path d="M720 2090 c0 -5 7 -10 16 -10 8 0 12 5 9 10 -3 6 -10 10 -16 10 -5 0
-9 -4 -9 -10z"/>
<path d="M305 2080 c-13 -5 -14 -9 -5 -9 8 0 24 4 35 9 13 5 14 9 5 9 -8 0
-24 -4 -35 -9z"/>
<path d="M408 2083 c7 -3 16 -2 19 1 4 3 -2 6 -13 5 -11 0 -14 -3 -6 -6z"/>
<path d="M1498 2083 c7 -3 16 -2 19 1 4 3 -2 6 -13 5 -11 0 -14 -3 -6 -6z"/>
<path d="M8142 2050 c-12 -11 -26 -20 -32 -20 -5 0 -10 -4 -10 -9 0 -5 -22
-26 -50 -46 -27 -20 -50 -44 -50 -53 0 -10 3 -13 8 -7 4 6 29 29 56 50 59 48
108 96 103 101 -2 2 -13 -5 -25 -16z"/>
<path d="M410 2050 c0 -5 5 -10 10 -10 6 0 10 5 10 10 0 6 -4 10 -10 10 -5 0
-10 -4 -10 -10z"/>
<path d="M551 2033 c1 -23 2 -24 6 -6 2 12 12 24 21 26 12 3 10 5 -5 6 -19 1
-23 -4 -22 -26z"/>
<path d="M620 2030 c0 -5 5 -10 10 -10 6 0 10 5 10 10 0 6 -4 10 -10 10 -5 0
-10 -4 -10 -10z"/>
<path d="M500 2018 c0 -9 8 -18 18 -22 9 -3 23 -9 30 -12 6 -3 12 -1 12 5 0 6
-5 11 -12 11 -6 0 -20 7 -30 17 -16 14 -18 14 -18 1z"/>
<path d="M937 2023 c-12 -11 -8 -23 8 -23 8 0 15 7 15 15 0 16 -12 20 -23 8z"/>
<path d="M450 2010 c0 -5 5 -10 10 -10 6 0 10 5 10 10 0 6 -4 10 -10 10 -5 0
-10 -4 -10 -10z"/>
<path d="M585 2010 c-3 -5 1 -10 10 -10 9 0 13 5 10 10 -3 6 -8 10 -10 10 -2
0 -7 -4 -10 -10z"/>
<path d="M1590 2000 c-8 -5 -11 -12 -8 -16 4 -3 14 1 23 10 18 17 9 21 -15 6z"/>
<path d="M380 1970 c0 -5 -8 -10 -18 -10 -19 0 -42 -18 -42 -32 0 -4 7 -8 15
-8 8 0 15 5 15 10 0 6 5 10 11 10 11 0 39 24 39 34 0 3 -4 6 -10 6 -5 0 -10
-4 -10 -10z"/>
<path d="M480 1960 c0 -13 5 -20 13 -17 6 2 12 10 12 17 0 7 -6 15 -12 18 -8
2 -13 -5 -13 -18z"/>
<path d="M1555 1970 c-4 -6 -3 -16 3 -22 6 -6 12 -6 17 2 4 6 3 16 -3 22 -6 6
-12 6 -17 -2z"/>
<path d="M830 1960 c0 -5 5 -10 10 -10 6 0 10 5 10 10 0 6 -4 10 -10 10 -5 0
-10 -4 -10 -10z"/>
<path d="M667 1954 c-13 -13 -7 -24 14 -24 11 0 19 5 17 12 -5 14 -22 21 -31
12z"/>
<path d="M800 1924 c0 -8 5 -12 10 -9 6 4 8 11 5 16 -9 14 -15 11 -15 -7z"/>
<path d="M865 1931 c-3 -5 -1 -12 5 -16 5 -3 10 1 10 9 0 18 -6 21 -15 7z"/>
<path d="M960 1930 c0 -5 5 -10 11 -10 5 0 7 5 4 10 -3 6 -8 10 -11 10 -2 0
-4 -4 -4 -10z"/>
<path d="M1025 1930 c-3 -5 -1 -10 4 -10 6 0 11 5 11 10 0 6 -2 10 -4 10 -3 0
-8 -4 -11 -10z"/>
<path d="M1580 1930 c0 -5 5 -10 10 -10 6 0 10 5 10 10 0 6 -4 10 -10 10 -5 0
-10 -4 -10 -10z"/>
<path d="M7955 1905 c-16 -13 -26 -27 -23 -31 9 -8 57 28 58 44 0 16 0 16 -35
-13z"/>
<path d="M1400 1850 c-24 -22 -29 -30 -17 -30 9 0 17 5 17 10 0 6 9 10 20 10
13 0 20 7 20 20 0 25 2 25 -40 -10z"/>
<path d="M7901 1866 c-19 -22 -228 -122 -321 -154 -47 -16 -104 -28 -127 -27
-24 1 -37 -2 -30 -7 9 -6 8 -8 -3 -9 -8 0 -28 -2 -45 -5 -16 -2 -59 -5 -95 -7
-36 -2 -65 -5 -65 -7 0 -1 -330 -3 -732 -4 -403 -2 -736 -6 -740 -9 -6 -7 454
-10 1223 -10 212 0 371 5 400 11 27 6 81 18 119 27 39 9 82 19 98 22 15 3 27
9 27 14 0 5 10 9 23 9 13 0 28 5 35 12 7 7 12 8 12 2 0 -5 3 -5 8 1 4 6 60 37
125 70 64 33 117 63 117 67 0 15 -18 17 -29 4z"/>
<path d="M1018 1833 c7 -3 16 -2 19 1 4 3 -2 6 -13 5 -11 0 -14 -3 -6 -6z"/>
<path d="M1105 1830 c11 -5 27 -9 35 -9 9 0 8 4 -5 9 -11 5 -27 9 -35 9 -9 0
-8 -4 5 -9z"/>
<path d="M1425 1820 c3 -5 8 -10 11 -10 2 0 4 5 4 10 0 6 -5 10 -11 10 -5 0
-7 -4 -4 -10z"/>
<path d="M1120 1790 c0 -7 14 -8 38 -4 51 9 53 14 4 14 -23 0 -42 -5 -42 -10z"/>
<path d="M1377 1789 c8 -8 19 -8 40 -1 28 10 28 10 -11 11 -29 1 -37 -2 -29
-10z"/>
<path d="M1040 1780 c0 -5 7 -10 15 -10 8 0 15 5 15 10 0 6 -7 10 -15 10 -8 0
-15 -4 -15 -10z"/>
<path d="M1437 1773 c-4 -3 -7 -27 -6 -52 0 -25 3 -40 6 -33 2 7 22 12 44 12
32 0 39 3 39 20 0 17 -7 20 -40 20 -22 0 -40 5 -40 10 0 6 12 10 28 10 21 0
24 2 12 10 -18 11 -34 13 -43 3z"/>
<path d="M1178 1763 c7 -3 16 -2 19 1 4 3 -2 6 -13 5 -11 0 -14 -3 -6 -6z"/>
<path d="M1288 1673 c6 -2 18 -2 25 0 6 3 1 5 -13 5 -14 0 -19 -2 -12 -5z"/>
<path d="M2841 1666 c2 -2 24 -6 49 -9 30 -4 38 -3 25 3 -19 8 -83 14 -74 6z"/>
<path d="M4555 1639 l-80 -5 108 -2 c104 -2 136 2 80 9 -16 2 -64 1 -108 -2z"/>
<path d="M5050 1640 c8 -5 29 -9 45 -9 29 1 29 1 5 9 -14 4 -34 8 -45 9 -16 1
-17 -1 -5 -9z"/>
<path d="M5147 1639 c7 -7 15 -10 18 -7 3 3 -2 9 -12 12 -14 6 -15 5 -6 -5z"/>
<path d="M5266 1642 c-3 -5 9 -9 27 -9 26 -1 28 1 12 7 -27 11 -33 12 -39 2z"/>
<path d="M4018 1633 c12 -2 32 -2 45 0 12 2 2 4 -23 4 -25 0 -35 -2 -22 -4z"/>
<path d="M4138 1633 c7 -3 16 -2 19 1 4 3 -2 6 -13 5 -11 0 -14 -3 -6 -6z"/>
<path d="M4423 1633 c9 -2 25 -2 35 0 9 3 1 5 -18 5 -19 0 -27 -2 -17 -5z"/>
<path d="M4928 1633 c7 -3 16 -2 19 1 4 3 -2 6 -13 5 -11 0 -14 -3 -6 -6z"/>
<path d="M5528 1633 c7 -3 16 -2 19 1 4 3 -2 6 -13 5 -11 0 -14 -3 -6 -6z"/>
<path d="M5638 1633 c7 -3 16 -2 19 1 4 3 -2 6 -13 5 -11 0 -14 -3 -6 -6z"/>
</g>
</svg>
